<?xml version="1.0" standalone="no"?>
<!DOCTYPE svg PUBLIC "-//W3C//DTD SVG 20010904//EN"
 "http://www.w3.org/TR/2001/REC-SVG-20010904/DTD/svg10.dtd">
<svg version="1.0" xmlns="http://www.w3.org/2000/svg"
 width="300.000000pt" height="158.000000pt" viewBox="0 0 300.000000 158.000000"
 preserveAspectRatio="xMidYMid meet">
<metadata>
Created by potrace 1.10, written by Peter Selinger 2001-2011
</metadata>
<g transform="translate(0.000000,158.000000) scale(0.100000,-0.100000)"
fill="#000000" stroke="none">
<path d="M1369 1569 c-74 -10 -157 -40 -204 -72 -29 -19 -43 -24 -56 -17 -36
20 -87 11 -123 -20 -59 -52 -57 -134 5 -166 25 -13 28 -18 21 -47 -9 -43 -9
-229 1 -349 l8 -98 -30 0 c-17 0 -42 -10 -57 -24 -26 -22 -27 -25 -15 -55 15
-35 29 -38 72 -15 l30 15 -7 -48 c-4 -26 -8 -111 -8 -188 -1 -163 14 -228 69
-300 l35 -45 -35 -31 c-42 -38 -45 -70 -9 -94 25 -16 29 -16 58 -1 17 9 43 26
58 38 27 21 28 21 80 4 141 -46 336 -42 463 9 l60 25 36 -40 c41 -45 56 -48
89 -22 28 23 22 61 -16 98 l-24 25 29 43 c59 85 74 153 79 342 l4 171 36 -1
c31 -1 38 3 46 28 9 24 7 31 -14 48 -13 10 -36 22 -50 25 l-27 5 -6 196 c-3
109 -11 216 -16 239 -10 40 -9 43 24 76 29 29 35 42 35 77 0 57 -50 110 -105
110 -20 0 -44 -4 -54 -9 -12 -7 -36 0 -86 25 -104 50 -244 66 -396 43z m262
-13 c97 -18 165 -53 221 -115 75 -83 93 -172 105 -517 14 -402 11 -518 -15
-600 -58 -189 -182 -270 -427 -281 -195 -9 -326 33 -413 133 -75 84 -77 98
-77 529 0 209 -3 385 -7 390 -11 18 11 182 33 241 26 70 92 139 164 173 63 30
202 59 280 60 33 0 94 -6 136 -13z m303 -66 c30 -11 66 -65 66 -97 0 -21 -44
-83 -59 -83 -12 0 -29 67 -20 81 10 17 -8 49 -28 49 -17 0 -53 28 -53 41 0 17
59 23 94 9z m-837 -16 l22 -6 -20 -28 c-14 -19 -27 -26 -40 -23 -39 11 -68
-45 -34 -65 13 -7 14 -14 5 -36 -9 -25 -12 -27 -28 -15 -48 37 -56 88 -21 133
31 40 68 53 116 40z m941 -700 c25 -16 30 -39 7 -30 -8 3 -15 1 -15 -4 0 -6 5
-10 12 -10 9 0 9 -3 1 -11 -26 -26 -73 18 -73 67 0 17 29 12 68 -12z m-1018
-12 c0 -22 -7 -32 -35 -45 -33 -16 -54 -9 -40 13 3 6 -2 10 -12 10 -29 1 33
50 63 50 20 0 24 -5 24 -28z m862 -639 c28 -32 41 -64 30 -75 -7 -7 -12 -3
-17 11 -3 12 -11 21 -16 21 -5 0 -4 -9 3 -20 10 -15 10 -22 1 -31 -9 -9 -21
-2 -51 27 l-38 39 30 22 c38 27 39 27 58 6z m-727 -15 c19 -13 35 -25 35 -28
-1 -15 -92 -71 -106 -66 -15 6 -15 8 0 31 9 14 12 25 6 25 -6 0 -13 -7 -16
-15 -7 -17 -24 -21 -24 -5 0 9 58 80 66 80 2 0 20 -10 39 -22z"/>
<path d="M1583 1479 c-55 -27 -83 -72 -83 -134 0 -42 5 -52 38 -85 107 -107
289 -28 267 116 -15 105 -121 153 -222 103z m150 -11 c51 -26 74 -132 41 -184
-52 -79 -199 -75 -248 6 -43 73 7 170 99 190 33 8 80 2 108 -12z"/>
<path d="M1552 1378 c-28 -28 -10 -78 29 -78 23 0 30 6 35 27 12 46 -33 82
-64 51z"/>
<path d="M1202 1460 c-127 -78 -73 -264 78 -264 151 0 218 188 95 264 -44 27
-128 27 -173 0z m155 -7 c50 -23 80 -91 64 -144 -30 -98 -172 -133 -242 -58
-104 111 36 270 178 202z"/>
<path d="M1182 1368 c-17 -17 -15 -54 4 -72 20 -21 30 -20 54 4 25 25 25 42 2
63 -22 20 -43 22 -60 5z"/>
<path d="M1409 1211 c-54 -53 -59 -72 -29 -98 11 -10 20 -27 20 -39 0 -12 9
-32 19 -45 16 -20 23 -22 38 -13 12 8 25 8 40 1 31 -14 53 7 53 49 0 26 4 34
18 34 24 0 42 19 42 44 0 29 -94 116 -126 116 -17 0 -42 -16 -75 -49z m64 -31
c21 0 47 5 57 10 28 15 80 -31 64 -57 -8 -12 -21 -17 -40 -15 -35 4 -109 4
-144 0 -20 -2 -26 2 -28 23 -4 32 25 66 41 50 6 -6 28 -11 50 -11z m-12 -143
c-18 -18 -41 1 -41 33 0 23 6 33 23 39 20 8 22 5 25 -27 2 -19 -1 -39 -7 -45z
m60 73 c34 -19 19 -97 -17 -83 -9 3 -14 21 -14 49 0 48 2 49 31 34z"/>
</g>
</svg>
